<?xml version="1.0" encoding="UTF-8" standalone="no"?>
<!DOCTYPE svg PUBLIC "-//W3C//DTD SVG 1.1//EN"
 "http://www.w3.org/Graphics/SVG/1.1/DTD/svg11.dtd">
<!-- Generated by graphviz version 2.38.0 (20140413.2041)
 -->
<!-- Title: Tree Pages: 1 -->
<svg width="923pt" height="269pt"
 viewBox="0.00 0.00 922.50 269.00" xmlns="http://www.w3.org/2000/svg" xmlns:xlink="http://www.w3.org/1999/xlink">
<g id="graph0" class="graph" transform="scale(1 1) rotate(0) translate(4 265)">
<title>Tree</title>
<polygon fill="white" stroke="none" points="-4,4 -4,-265 918.5,-265 918.5,4 -4,4"/>
<!-- 0 -->
<g id="node1" class="node"><title>0</title>
<polygon fill="none" stroke="black" points="567,-261 328,-261 328,-193 567,-193 567,-261"/>
<text text-anchor="middle" x="447.5" y="-245.8" font-family="Times,serif" font-size="14.00">opening_gross &lt;= 41613376.0</text>
<text text-anchor="middle" x="447.5" y="-230.8" font-family="Times,serif" font-size="14.00">mse = 4.4919943637e+16</text>
<text text-anchor="middle" x="447.5" y="-215.8" font-family="Times,serif" font-size="14.00">samples = 1665</text>
<text text-anchor="middle" x="447.5" y="-200.8" font-family="Times,serif" font-size="14.00">value = 141540319.054</text>
</g>
<!-- 1 -->
<g id="node2" class="node"><title>1</title>
<polygon fill="none" stroke="black" points="439,-157 200,-157 200,-89 439,-89 439,-157"/>
<text text-anchor="middle" x="319.5" y="-141.8" font-family="Times,serif" font-size="14.00">opening_gross &lt;= 22074048.0</text>
<text text-anchor="middle" x="319.5" y="-126.8" font-family="Times,serif" font-size="14.00">mse = 1.33338221931e+16</text>
<text text-anchor="middle" x="319.5" y="-111.8" font-family="Times,serif" font-size="14.00">samples = 1506</text>
<text text-anchor="middle" x="319.5" y="-96.8" font-family="Times,serif" font-size="14.00">value = 92999937.199</text>
</g>
<!-- 0&#45;&gt;1 -->
<g id="edge1" class="edge"><title>0&#45;&gt;1</title>
<path fill="none" stroke="black" d="M405.942,-192.884C394.205,-183.531 381.316,-173.259 369.154,-163.568"/>
<polygon fill="black" stroke="black" points="371.289,-160.794 361.287,-157.299 366.927,-166.269 371.289,-160.794"/>
<text text-anchor="middle" x="364.096" y="-178.441" font-family="Times,serif" font-size="14.00">True</text>
</g>
<!-- 4 -->
<g id="node5" class="node"><title>4</title>
<polygon fill="none" stroke="black" points="696,-157 457,-157 457,-89 696,-89 696,-157"/>
<text text-anchor="middle" x="576.5" y="-141.8" font-family="Times,serif" font-size="14.00">opening_gross &lt;= 70351576.0</text>
<text text-anchor="middle" x="576.5" y="-126.8" font-family="Times,serif" font-size="14.00">mse = 1.10398118716e+17</text>
<text text-anchor="middle" x="576.5" y="-111.8" font-family="Times,serif" font-size="14.00">samples = 159</text>
<text text-anchor="middle" x="576.5" y="-96.8" font-family="Times,serif" font-size="14.00">value = 601300162.289</text>
</g>
<!-- 0&#45;&gt;4 -->
<g id="edge4" class="edge"><title>0&#45;&gt;4</title>
<path fill="none" stroke="black" d="M489.383,-192.884C501.211,-183.531 514.201,-173.259 526.458,-163.568"/>
<polygon fill="black" stroke="black" points="528.713,-166.247 534.386,-157.299 524.371,-160.756 528.713,-166.247"/>
<text text-anchor="middle" x="531.484" y="-178.43" font-family="Times,serif" font-size="14.00">False</text>
</g>
<!-- 2 -->
<g id="node3" class="node"><title>2</title>
<polygon fill="none" stroke="black" points="209,-53 0,-53 0,-0 209,-0 209,-53"/>
<text text-anchor="middle" x="104.5" y="-37.8" font-family="Times,serif" font-size="14.00">mse = 4.9236662412e+15</text>
<text text-anchor="middle" x="104.5" y="-22.8" font-family="Times,serif" font-size="14.00">samples = 1257</text>
<text text-anchor="middle" x="104.5" y="-7.8" font-family="Times,serif" font-size="14.00">value = 64781848.271</text>
</g>
<!-- 1&#45;&gt;2 -->
<g id="edge2" class="edge"><title>1&#45;&gt;2</title>
<path fill="none" stroke="black" d="M244.303,-88.9485C220.782,-78.6102 194.987,-67.2722 172.028,-57.1809"/>
<polygon fill="black" stroke="black" points="173.276,-53.9064 162.713,-53.0867 170.459,-60.3147 173.276,-53.9064"/>
</g>
<!-- 3 -->
<g id="node4" class="node"><title>3</title>
<polygon fill="none" stroke="black" points="427.5,-53 227.5,-53 227.5,-0 427.5,-0 427.5,-53"/>
<text text-anchor="middle" x="327.5" y="-37.8" font-family="Times,serif" font-size="14.00">mse = 3.147813102e+16</text>
<text text-anchor="middle" x="327.5" y="-22.8" font-family="Times,serif" font-size="14.00">samples = 249</text>
<text text-anchor="middle" x="327.5" y="-7.8" font-family="Times,serif" font-size="14.00">value = 235450289.735</text>
</g>
<!-- 1&#45;&gt;3 -->
<g id="edge3" class="edge"><title>1&#45;&gt;3</title>
<path fill="none" stroke="black" d="M322.298,-88.9485C323.003,-80.6238 323.762,-71.6509 324.478,-63.2027"/>
<polygon fill="black" stroke="black" points="327.965,-63.4963 325.321,-53.2367 320.99,-62.9058 327.965,-63.4963"/>
</g>
<!-- 5 -->
<g id="node6" class="node"><title>5</title>
<polygon fill="none" stroke="black" points="678.5,-53 460.5,-53 460.5,-0 678.5,-0 678.5,-53"/>
<text text-anchor="middle" x="569.5" y="-37.8" font-family="Times,serif" font-size="14.00">mse = 4.06753884592e+16</text>
<text text-anchor="middle" x="569.5" y="-22.8" font-family="Times,serif" font-size="14.00">samples = 92</text>
<text text-anchor="middle" x="569.5" y="-7.8" font-family="Times,serif" font-size="14.00">value = 440868287.554</text>
</g>
<!-- 4&#45;&gt;5 -->
<g id="edge5" class="edge"><title>4&#45;&gt;5</title>
<path fill="none" stroke="black" d="M574.052,-88.9485C573.442,-80.7153 572.785,-71.848 572.165,-63.4814"/>
<polygon fill="black" stroke="black" points="575.636,-62.9508 571.406,-53.2367 568.655,-63.468 575.636,-62.9508"/>
</g>
<!-- 6 -->
<g id="node7" class="node"><title>6</title>
<polygon fill="none" stroke="black" points="914.5,-53 696.5,-53 696.5,-0 914.5,-0 914.5,-53"/>
<text text-anchor="middle" x="805.5" y="-37.8" font-family="Times,serif" font-size="14.00">mse = 1.22264857987e+17</text>
<text text-anchor="middle" x="805.5" y="-22.8" font-family="Times,serif" font-size="14.00">samples = 67</text>
<text text-anchor="middle" x="805.5" y="-7.8" font-family="Times,serif" font-size="14.00">value = 821594676.851</text>
</g>
<!-- 4&#45;&gt;6 -->
<g id="edge6" class="edge"><title>4&#45;&gt;6</title>
<path fill="none" stroke="black" d="M656.593,-88.9485C681.868,-78.5183 709.609,-67.0705 734.226,-56.9121"/>
<polygon fill="black" stroke="black" points="735.588,-60.1367 743.496,-53.0867 732.917,-53.666 735.588,-60.1367"/>
</g>
</g>
</svg>